<?xml version="1.0" standalone="no"?>
<!DOCTYPE svg PUBLIC "-//W3C//DTD SVG 20010904//EN"
 "http://www.w3.org/TR/2001/REC-SVG-20010904/DTD/svg10.dtd">
<svg version="1.0" xmlns="http://www.w3.org/2000/svg"
 width="1000.000000pt" height="1021.000000pt" viewBox="0 0 1000.000000 1021.000000"
 preserveAspectRatio="xMidYMid meet">

<g transform="translate(0.000000,1021.000000) scale(0.100000,-0.100000)"
fill="#000000" stroke="none">
<path d="M8355 9974 c-11 -2 -54 -12 -95 -20 -75 -16 -167 -47 -205 -70 -11
-6 -45 -20 -75 -30 -64 -21 -132 -67 -214 -144 -58 -54 -166 -182 -166 -196 0
-4 -18 -35 -40 -69 -22 -33 -54 -101 -72 -150 -26 -75 -32 -105 -32 -180 -1
-88 0 -92 39 -159 22 -38 49 -74 60 -80 11 -6 31 -18 45 -28 48 -31 139 -51
210 -46 83 6 197 58 258 117 49 47 110 138 112 166 7 70 0 95 -39 134 l-39 39
22 21 c11 11 42 29 68 41 l46 20 49 -25 c26 -14 83 -30 126 -36 65 -10 82 -16
108 -43 36 -35 108 -182 134 -271 10 -33 28 -89 42 -125 13 -36 31 -116 39
-179 l16 -114 -25 -86 c-15 -47 -29 -113 -33 -145 -7 -65 -11 -70 -108 -146
-31 -25 -81 -65 -111 -90 -55 -46 -150 -121 -242 -190 -55 -42 -156 -100 -174
-100 -5 0 -22 9 -38 21 -16 12 -50 22 -82 26 -78 8 -125 -16 -234 -119 -89
-84 -228 -188 -251 -188 -7 0 -14 -4 -16 -8 -1 -4 -17 -17 -33 -29 -26 -18
-44 -21 -130 -20 -143 1 -330 -41 -449 -99 -48 -24 -93 -44 -99 -44 -5 0 -46
-22 -91 -49 -45 -26 -90 -53 -102 -59 -27 -14 -311 2 -391 22 -179 46 -567 69
-793 47 -63 -6 -194 -18 -290 -26 -96 -9 -254 -29 -350 -44 -279 -46 -264 -46
-308 -7 -48 43 -185 138 -253 174 -30 16 -99 54 -154 85 -55 30 -120 67 -145
80 -47 27 -128 105 -150 147 -7 13 -30 46 -52 73 -21 27 -38 53 -38 58 0 5 -6
17 -14 26 -8 10 -27 33 -41 50 -35 43 -140 93 -194 93 -50 0 -113 -30 -138
-65 -10 -14 -33 -46 -51 -70 -43 -59 -127 -228 -153 -307 -72 -224 -87 -321
-60 -386 11 -26 10 -43 -7 -114 -38 -151 -45 -216 -40 -364 l4 -143 -81 -30
c-45 -17 -85 -31 -89 -31 -9 0 -200 -91 -256 -121 -19 -11 -127 -66 -240 -123
-208 -104 -330 -176 -364 -214 -10 -12 -41 -33 -70 -48 -148 -78 -185 -99
-231 -132 -77 -57 -215 -152 -221 -152 -3 0 -20 -13 -37 -29 -18 -16 -73 -64
-122 -109 -89 -78 -201 -198 -280 -297 -22 -27 -43 -51 -47 -53 -5 -2 -8 -8
-8 -14 0 -5 -20 -35 -45 -67 -25 -31 -45 -60 -45 -64 0 -4 -22 -41 -50 -83
-27 -41 -50 -79 -50 -82 1 -4 -20 -47 -45 -97 -98 -195 -138 -307 -181 -500
-23 -102 -14 -446 15 -565 50 -212 120 -375 217 -506 98 -132 263 -262 434
-341 133 -62 169 -68 385 -65 394 5 673 54 959 169 127 51 140 54 149 38 5 -9
17 -25 27 -35 22 -22 90 -122 90 -132 0 -8 97 -157 139 -213 17 -22 62 -83
101 -135 85 -114 123 -159 214 -259 39 -42 84 -91 100 -110 48 -52 260 -256
325 -311 23 -19 61 -52 85 -73 47 -40 53 -44 201 -150 53 -38 98 -74 101 -81
3 -7 -7 -39 -22 -72 -39 -87 -37 -159 6 -252 72 -156 254 -252 480 -252 111 0
182 12 308 52 l94 29 73 -30 c40 -17 99 -33 131 -36 33 -4 93 -15 134 -25 192
-48 276 -55 655 -55 198 1 443 5 545 11 l185 10 61 -48 c122 -95 323 -137 454
-93 87 28 125 51 186 111 64 64 85 106 114 227 21 86 20 103 -5 247 -6 33 -3
39 60 100 70 69 227 258 295 356 68 99 90 128 117 159 39 45 141 199 181 274
128 239 209 401 237 477 13 34 34 79 48 101 43 68 136 259 158 325 12 35 35
90 51 123 86 174 131 329 158 545 14 116 13 188 -6 305 -8 55 -17 161 -18 235
-8 308 -75 567 -230 880 l-84 170 -12 137 c-16 177 -49 330 -96 440 -31 74
-41 118 -65 283 -16 107 -34 211 -40 231 -9 28 -8 45 5 83 21 60 21 228 1 471
-19 229 -20 214 13 226 48 18 225 110 256 134 35 26 204 107 271 129 56 19
258 120 276 138 8 8 39 32 69 55 70 51 97 81 154 166 51 77 142 263 155 317 5
19 25 98 45 175 63 240 85 692 42 841 -19 66 -118 256 -175 334 -54 74 -171
176 -220 191 -20 6 -56 31 -81 56 -79 78 -146 121 -219 137 -66 15 -347 30
-386 20z m-5584 -4166 c-84 -167 -111 -258 -122 -412 -5 -71 -16 -156 -23
-190 -37 -158 -77 -561 -83 -836 -6 -245 -14 -290 -51 -290 -18 0 -170 -74
-255 -124 -74 -43 -441 -116 -586 -116 -107 0 -202 18 -228 43 -28 27 -46 139
-40 257 7 147 42 365 74 455 32 88 111 249 160 323 54 81 276 356 401 496 170
191 217 226 495 369 341 175 334 175 258 25z m3134 -125 c126 -46 149 -57 203
-105 64 -55 146 -169 168 -230 18 -53 27 -266 13 -361 -5 -37 -16 -82 -24
-100 -47 -98 -134 -217 -159 -217 -30 0 -312 -333 -388 -458 -71 -118 -90
-177 -96 -302 -5 -129 6 -179 48 -202 25 -14 30 -23 30 -54 0 -76 -68 -144
-143 -144 -79 0 -115 47 -177 230 -25 75 -34 124 -42 230 -10 124 -9 142 10
217 39 155 125 318 225 429 25 28 90 81 145 117 75 51 108 80 140 126 71 101
100 188 73 217 -5 5 -11 25 -13 44 -4 41 -22 52 -116 71 -61 13 -66 12 -145
-15 -45 -16 -95 -36 -112 -44 -39 -19 -145 -122 -145 -142 0 -8 -8 -28 -18
-45 -10 -16 -28 -54 -41 -84 -29 -70 -88 -141 -116 -141 -12 0 -37 16 -56 36
l-34 35 -3 118 c-4 139 20 349 49 426 26 70 87 163 130 198 103 85 131 103
199 135 99 46 118 50 230 45 69 -3 114 -11 165 -30z m-162 -2677 c67 -28 107
-104 93 -179 -17 -90 -132 -210 -229 -237 -51 -15 -105 10 -129 60 -49 98 9
292 106 351 37 23 112 25 159 5z"/>
</g>
</svg>
